<svg width="24" height="24" viewBox="0 0 24 24" fill="none" xmlns="http://www.w3.org/2000/svg">
<path d="M3.73229 17.6272C2.63912 16.0242 2 14.0868 2 12.0001C2 6.47719 6.47719 2 12.0001 2C16.5346 2 20.3643 5.01815 21.5897 9.15518C20.9112 10.4166 19.6522 11.9604 17.6512 13.3863V7.26047C17.6512 6.80022 17.2781 6.42712 16.8178 6.42712H15.4376C14.9774 6.42712 14.6043 6.7998 14.6043 7.26004V14.0834C14.6043 14.8183 14.3524 15.1969 14.1206 15.3659C13.909 15.4583 13.6927 15.5489 13.4715 15.6375V9.34382C13.4715 8.88358 13.0984 8.51048 12.6381 8.51048H11.2579C10.7977 8.51048 10.4246 8.8811 10.4246 9.34134V15.4637C10.4246 16.2168 10.1599 16.5958 9.92356 16.7584C9.695 16.8135 9.4627 16.8665 9.22663 16.9173V11.4141C9.22663 10.9539 8.85353 10.5808 8.39329 10.5808H7.01307C6.55282 10.5808 6.17973 10.9522 6.17973 11.4125V16.1668C6.17973 16.9469 5.89588 17.3255 5.65353 17.4781C5.04595 17.5408 4.41856 17.5903 3.77088 17.6251C3.75799 17.6258 3.74513 17.6265 3.73229 17.6272Z" fill="#21325B"/>
<path d="M12.0001 22C17.523 22 22.0002 17.5228 22.0002 11.9999C22.0002 11.6898 21.9861 11.383 21.9585 11.0801C19.1098 16.6149 10.2615 19.3211 6.01051 20.0078C6.04376 20.0107 5.97743 20.0049 6.01051 20.0078C7.67925 21.2563 9.7557 22 12.0001 22Z" fill="#979695"/>
</svg>
