<svg width="20" height="21" viewBox="0 0 20 21" fill="none" xmlns="http://www.w3.org/2000/svg">
<path d="M16.2667 6.52305L16.275 6.51471L13.6167 3.85638C13.375 3.61471 12.975 3.61471 12.7333 3.85638C12.4917 4.09805 12.4917 4.49805 12.7333 4.73971L14.05 6.05638C13.175 6.38971 12.5833 7.28138 12.7333 8.31471C12.8667 9.23138 13.65 9.97305 14.5667 10.073C14.9583 10.1147 15.3 10.048 15.625 9.90638V15.9147C15.625 16.373 15.25 16.748 14.7917 16.748C14.3333 16.748 13.9583 16.373 13.9583 15.9147V12.1647C13.9583 11.248 13.2083 10.498 12.2917 10.498H11.4583V4.66471C11.4583 3.74805 10.7083 2.99805 9.79167 2.99805H4.79167C3.875 2.99805 3.125 3.74805 3.125 4.66471V17.1647C3.125 17.623 3.5 17.998 3.95833 17.998H10.625C11.0833 17.998 11.4583 17.623 11.4583 17.1647V11.748H12.7083V15.798C12.7083 16.8897 13.4917 17.8814 14.575 17.9897C15.825 18.1147 16.875 17.1397 16.875 15.9147V7.99805C16.875 7.42305 16.6417 6.89805 16.2667 6.52305ZM9.79167 8.83138H4.79167V5.49805C4.79167 5.03971 5.16667 4.66471 5.625 4.66471H8.95833C9.41667 4.66471 9.79167 5.03971 9.79167 5.49805V8.83138ZM14.7917 8.83138C14.3333 8.83138 13.9583 8.45638 13.9583 7.99805C13.9583 7.53971 14.3333 7.16471 14.7917 7.16471C15.25 7.16471 15.625 7.53971 15.625 7.99805C15.625 8.45638 15.25 8.83138 14.7917 8.83138Z" fill="#324154"/>
</svg>
