<svg width="24" height="24" viewBox="0 0 24 24" fill="none" xmlns="http://www.w3.org/2000/svg">
<path d="M19.52 7.22854L19.53 7.21853L16.34 4.02854C16.05 3.73854 15.57 3.73854 15.28 4.02854C14.99 4.31854 14.99 4.79854 15.28 5.08854L16.86 6.66854C15.81 7.06854 15.1 8.13854 15.28 9.37854C15.44 10.4785 16.38 11.3685 17.48 11.4885C17.95 11.5385 18.36 11.4585 18.75 11.2885V18.4985C18.75 19.0485 18.3 19.4985 17.75 19.4985C17.2 19.4985 16.75 19.0485 16.75 18.4985V13.9985C16.75 12.8985 15.85 11.9985 14.75 11.9985H13.75V4.99854C13.75 3.89854 12.85 2.99854 11.75 2.99854H5.75C4.65 2.99854 3.75 3.89854 3.75 4.99854V19.9985C3.75 20.5485 4.2 20.9985 4.75 20.9985H12.75C13.3 20.9985 13.75 20.5485 13.75 19.9985V13.4985H15.25V18.3585C15.25 19.6685 16.19 20.8585 17.49 20.9885C18.99 21.1385 20.25 19.9685 20.25 18.4985V8.99854C20.25 8.30854 19.97 7.67853 19.52 7.22854ZM11.75 9.99854H5.75V5.99854C5.75 5.44854 6.2 4.99854 6.75 4.99854H10.75C11.3 4.99854 11.75 5.44854 11.75 5.99854V9.99854ZM17.75 9.99854C17.2 9.99854 16.75 9.54854 16.75 8.99854C16.75 8.44853 17.2 7.99854 17.75 7.99854C18.3 7.99854 18.75 8.44853 18.75 8.99854C18.75 9.54854 18.3 9.99854 17.75 9.99854Z" fill="#F9FAFC"/>
</svg>
