<svg width="24" height="24" viewBox="0 0 24 24" fill="none" xmlns="http://www.w3.org/2000/svg">
<path d="M12.0015 2.5C11.5415 2.5 11.0715 2.54 10.6015 2.64C7.84154 3.17 5.64154 5.4 5.12154 8.16C4.64154 10.77 5.60154 13.17 7.34154 14.72C7.77154 15.1 8.00154 15.63 8.00154 16.19V18.5C8.00154 19.6 8.90154 20.5 10.0015 20.5H10.2815C10.6315 21.1 11.2615 21.5 12.0015 21.5C12.7415 21.5 13.3815 21.1 13.7215 20.5H14.0015C15.1015 20.5 16.0015 19.6 16.0015 18.5V16.19C16.0015 15.64 16.2215 15.1 16.6415 14.73C18.0915 13.45 19.0015 11.58 19.0015 9.5C19.0015 5.63 15.8715 2.5 12.0015 2.5ZM12.5015 13.5H11.5015V10.91L9.67154 9.09L10.3815 8.38L12.0015 10L13.6215 8.38L14.3315 9.09L12.5015 10.92V13.5ZM13.5015 18.5C13.4915 18.5 13.4815 18.49 13.4715 18.49V18.5H10.5315V18.49C10.5215 18.49 10.5115 18.5 10.5015 18.5C10.2215 18.5 10.0015 18.28 10.0015 18C10.0015 17.72 10.2215 17.5 10.5015 17.5C10.5115 17.5 10.5215 17.51 10.5315 17.51V17.5H13.4715V17.51C13.4815 17.51 13.4915 17.5 13.5015 17.5C13.7815 17.5 14.0015 17.72 14.0015 18C14.0015 18.28 13.7815 18.5 13.5015 18.5ZM13.5015 16.5H10.5015C10.2215 16.5 10.0015 16.28 10.0015 16C10.0015 15.72 10.2215 15.5 10.5015 15.5H13.5015C13.7815 15.5 14.0015 15.72 14.0015 16C14.0015 16.28 13.7815 16.5 13.5015 16.5Z" fill="#F9FAFC"/>
</svg>
