<svg width="16" height="17" viewBox="0 0 16 17" fill="none" xmlns="http://www.w3.org/2000/svg">
<path d="M10.6511 10.1482H10.1244L9.93775 9.9682C10.7377 9.03487 11.1511 7.76154 10.9244 6.4082C10.6111 4.55487 9.06441 3.07487 7.19775 2.8482C4.37775 2.50154 2.00441 4.87487 2.35108 7.69487C2.57775 9.56154 4.05775 11.1082 5.91108 11.4215C7.26441 11.6482 8.53775 11.2349 9.47108 10.4349L9.65108 10.6215V11.1482L12.4844 13.9815C12.7577 14.2549 13.2044 14.2549 13.4777 13.9815C13.7511 13.7082 13.7511 13.2615 13.4777 12.9882L10.6511 10.1482ZM6.65108 10.1482C4.99108 10.1482 3.65108 8.8082 3.65108 7.1482C3.65108 5.4882 4.99108 4.1482 6.65108 4.1482C8.31108 4.1482 9.65108 5.4882 9.65108 7.1482C9.65108 8.8082 8.31108 10.1482 6.65108 10.1482Z" fill="#64748B"/>
</svg>
