<svg width="24" height="24" viewBox="0 0 24 24" fill="none" xmlns="http://www.w3.org/2000/svg">
<path d="M19.6486 9.29464L14.8086 8.87464L12.9186 4.42464C12.5786 3.61464 11.4186 3.61464 11.0786 4.42464L9.18861 8.88464L4.35861 9.29464C3.47861 9.36464 3.11861 10.4646 3.78861 11.0446L7.45861 14.2246L6.35861 18.9446C6.15861 19.8046 7.08861 20.4846 7.84861 20.0246L11.9986 17.5246L16.1486 20.0346C16.9086 20.4946 17.8386 19.8146 17.6386 18.9546L16.5386 14.2246L20.2086 11.0446C20.8786 10.4646 20.5286 9.36464 19.6486 9.29464ZM11.9986 15.6546L8.23861 17.9246L9.23861 13.6446L5.91861 10.7646L10.2986 10.3846L11.9986 6.35464L13.7086 10.3946L18.0886 10.7746L14.7686 13.6546L15.7686 17.9346L11.9986 15.6546Z" fill="#F9FAFC"/>
</svg>
