<svg width="20" height="20" viewBox="0 0 20 20" fill="none" xmlns="http://www.w3.org/2000/svg">
<path d="M5.04586 3.86667L4.72086 3.54167C4.39586 3.21667 3.87086 3.225 3.55419 3.54167L3.54586 3.55C3.22086 3.875 3.22086 4.4 3.54586 4.71667L3.87086 5.04167C4.19586 5.36667 4.71252 5.36667 5.03752 5.04167L5.04586 5.03333C5.37086 4.71667 5.37086 4.18333 5.04586 3.86667ZM2.51252 9.16667H1.66252C1.20419 9.16667 0.837524 9.53333 0.837524 9.99167V10C0.837524 10.4583 1.20419 10.825 1.66252 10.825H2.50419C2.97086 10.8333 3.33752 10.4667 3.33752 10.0083V10C3.33752 9.53333 2.97086 9.16667 2.51252 9.16667ZM10.0125 0.875H10.0042C9.53752 0.875 9.17086 1.24167 9.17086 1.7V2.5C9.17086 2.95833 9.53752 3.325 9.99586 3.325H10.0042C10.4709 3.33333 10.8375 2.96667 10.8375 2.50833V1.7C10.8375 1.24167 10.4709 0.875 10.0125 0.875ZM16.4625 3.55C16.1375 3.225 15.6125 3.225 15.2875 3.54167L14.9625 3.86667C14.6375 4.19167 14.6375 4.71667 14.9625 5.03333L14.9709 5.04167C15.2959 5.36667 15.8209 5.36667 16.1375 5.04167L16.4625 4.71667C16.7875 4.39167 16.7875 3.875 16.4625 3.55ZM14.9542 16.1333L15.2792 16.4583C15.6042 16.7833 16.1292 16.7833 16.4542 16.4583C16.7792 16.1333 16.7792 15.6083 16.4542 15.2833L16.1292 14.9583C15.8042 14.6333 15.2792 14.6417 14.9625 14.9583C14.6292 15.2917 14.6292 15.8083 14.9542 16.1333ZM16.6709 9.99167V10C16.6709 10.4583 17.0375 10.825 17.4959 10.825H18.3375C18.7959 10.825 19.1625 10.4583 19.1625 10V9.99167C19.1625 9.53333 18.7959 9.16667 18.3375 9.16667H17.4959C17.0375 9.16667 16.6709 9.53333 16.6709 9.99167ZM10.0042 5C7.24586 5 5.00419 7.24167 5.00419 10C5.00419 12.7583 7.24586 15 10.0042 15C12.7625 15 15.0042 12.7583 15.0042 10C15.0042 7.24167 12.7625 5 10.0042 5ZM9.99586 19.125H10.0042C10.4625 19.125 10.8292 18.7583 10.8292 18.3V17.5C10.8292 17.0417 10.4625 16.675 10.0042 16.675H9.99586C9.53752 16.675 9.17086 17.0417 9.17086 17.5V18.3C9.17086 18.7583 9.53752 19.125 9.99586 19.125ZM3.54586 16.45C3.87086 16.775 4.39586 16.775 4.72086 16.45L5.04586 16.125C5.37086 15.8 5.36252 15.275 5.04586 14.9583L5.03752 14.95C4.71252 14.625 4.18752 14.625 3.86252 14.95L3.53752 15.275C3.22086 15.6083 3.22086 16.125 3.54586 16.45Z" fill="#27C69F"/>
</svg>
