<svg width="24" height="24" viewBox="0 0 24 24" fill="none" xmlns="http://www.w3.org/2000/svg">
<circle cx="12" cy="12" r="12" fill="#1E2B45"/>
<path d="M19.5 7.83342L12 3.66675L4.5 7.83342V16.1667L12 20.3334L19.5 16.1667V7.83342ZM12 5.57508L16.925 8.30841L14.4167 9.70008C13.8083 9.06675 12.95 8.66675 12 8.66675C11.05 8.66675 10.1917 9.06675 9.58333 9.70008L7.075 8.30841L12 5.57508ZM11.1667 17.9667L6.16667 15.1917V9.71675L8.775 11.1667C8.7 11.4251 8.66667 11.7084 8.66667 12.0001C8.66667 13.5501 9.725 14.8584 11.1667 15.2251V17.9667ZM10.3333 12.0001C10.3333 11.0834 11.0833 10.3334 12 10.3334C12.9167 10.3334 13.6667 11.0834 13.6667 12.0001C13.6667 12.9167 12.9167 13.6667 12 13.6667C11.0833 13.6667 10.3333 12.9167 10.3333 12.0001ZM12.8333 17.9667V15.2334C14.275 14.8667 15.3333 13.5584 15.3333 12.0084C15.3333 11.7167 15.3 11.4334 15.225 11.1667L17.8333 9.71675V15.1917L12.8333 17.9667Z" fill="#74DD9F"/>
</svg>
