<svg width="24" height="24" viewBox="0 0 24 24" fill="none" xmlns="http://www.w3.org/2000/svg">
<circle cx="12" cy="12" r="12" fill="#1E2B45"/>
<path d="M14.4999 5.33325C10.8166 5.33325 7.83325 8.31658 7.83325 11.9999C7.83325 15.6833 10.8166 18.6666 14.4999 18.6666C18.1833 18.6666 21.1666 15.6833 21.1666 11.9999C21.1666 8.31658 18.1833 5.33325 14.4999 5.33325ZM14.4999 16.9999C11.7416 16.9999 9.49992 14.7583 9.49992 11.9999C9.49992 9.24159 11.7416 6.99992 14.4999 6.99992C17.2583 6.99992 19.4999 9.24159 19.4999 11.9999C19.4999 14.7583 17.2583 16.9999 14.4999 16.9999ZM4.49992 11.9999C4.49992 9.82492 5.89159 7.97492 7.83325 7.29158V5.54992C4.95825 6.29159 2.83325 8.89158 2.83325 11.9999C2.83325 15.1083 4.95825 17.7083 7.83325 18.4499V16.7083C5.89159 16.0249 4.49992 14.1749 4.49992 11.9999Z" fill="#74DD9F"/>
</svg>
