<svg width="24" height="24" viewBox="0 0 24 24" fill="none" xmlns="http://www.w3.org/2000/svg">
<circle cx="12" cy="12" r="12" fill="#1E2B45"/>
<path d="M12.0001 20.3334C7.40841 20.3334 3.66675 16.5917 3.66675 12.0001C3.66675 7.40841 7.40841 3.66675 12.0001 3.66675C16.5917 3.66675 20.3334 7.03341 20.3334 11.1667C20.3334 13.9251 18.0917 16.1667 15.3334 16.1667H13.8584C13.6251 16.1667 13.4417 16.3501 13.4417 16.5834C13.4417 16.6834 13.4834 16.7751 13.5501 16.8584C13.8917 17.2501 14.0834 17.7417 14.0834 18.2501C14.0834 19.4001 13.1501 20.3334 12.0001 20.3334ZM12.0001 5.33341C8.32508 5.33341 5.33341 8.32508 5.33341 12.0001C5.33341 15.6751 8.32508 18.6667 12.0001 18.6667C12.2334 18.6667 12.4167 18.4834 12.4167 18.2501C12.4167 18.1167 12.3501 18.0167 12.3001 17.9584C11.9584 17.5751 11.7751 17.0834 11.7751 16.5834C11.7751 15.4334 12.7084 14.5001 13.8584 14.5001H15.3334C17.1751 14.5001 18.6667 13.0084 18.6667 11.1667C18.6667 7.95008 15.6751 5.33341 12.0001 5.33341Z" fill="#74DD9F"/>
<path d="M7.41675 12.8334C8.1071 12.8334 8.66675 12.2738 8.66675 11.5834C8.66675 10.8931 8.1071 10.3334 7.41675 10.3334C6.72639 10.3334 6.16675 10.8931 6.16675 11.5834C6.16675 12.2738 6.72639 12.8334 7.41675 12.8334Z" fill="#74DD9F"/>
<path d="M9.91675 9.50008C10.6071 9.50008 11.1667 8.94044 11.1667 8.25008C11.1667 7.55973 10.6071 7.00008 9.91675 7.00008C9.22639 7.00008 8.66675 7.55973 8.66675 8.25008C8.66675 8.94044 9.22639 9.50008 9.91675 9.50008Z" fill="#74DD9F"/>
<path d="M14.0834 9.50008C14.7738 9.50008 15.3334 8.94044 15.3334 8.25008C15.3334 7.55973 14.7738 7.00008 14.0834 7.00008C13.3931 7.00008 12.8334 7.55973 12.8334 8.25008C12.8334 8.94044 13.3931 9.50008 14.0834 9.50008Z" fill="#74DD9F"/>
<path d="M16.5834 12.8334C17.2738 12.8334 17.8334 12.2738 17.8334 11.5834C17.8334 10.8931 17.2738 10.3334 16.5834 10.3334C15.8931 10.3334 15.3334 10.8931 15.3334 11.5834C15.3334 12.2738 15.8931 12.8334 16.5834 12.8334Z" fill="#74DD9F"/>
</svg>
