<svg width="24" height="24" viewBox="0 0 24 24" fill="none" xmlns="http://www.w3.org/2000/svg">
<circle cx="12" cy="12" r="12" fill="#1E2B45"/>
<path d="M11.9999 3.66675C7.55825 7.45842 5.33325 10.7334 5.33325 13.5001C5.33325 17.6501 8.49992 20.3334 11.9999 20.3334C15.4999 20.3334 18.6666 17.6501 18.6666 13.5001C18.6666 10.7334 16.4416 7.45842 11.9999 3.66675ZM11.9999 18.6667C9.20825 18.6667 6.99992 16.5251 6.99992 13.5001C6.99992 11.5501 8.62492 8.96675 11.9999 5.88341C15.3749 8.96675 16.9999 11.5417 16.9999 13.5001C16.9999 16.5251 14.7916 18.6667 11.9999 18.6667ZM8.52492 13.6667C8.83325 13.6667 9.08325 13.8834 9.14158 14.1834C9.48325 16.0334 11.0416 16.6667 12.1749 16.5751C12.5333 16.5584 12.8333 16.8417 12.8333 17.2001C12.8333 17.5334 12.5666 17.8084 12.2333 17.8251C10.4583 17.9334 8.38325 16.9167 7.90825 14.3917C7.84159 14.0167 8.14158 13.6667 8.52492 13.6667Z" fill="#74DD9F"/>
</svg>
